<mxfile host="65bd71144e">
    <diagram id="kcIGn_kX_1L25iIxUXLg" name="Page-1">
        <mxGraphModel dx="829" dy="548" grid="1" gridSize="10" guides="1" tooltips="1" connect="1" arrows="1" fold="1" page="1" pageScale="1" pageWidth="850" pageHeight="1100" math="0" shadow="0">
            <root>
                <mxCell id="0"/>
                <mxCell id="1" parent="0"/>
                <mxCell id="EZAqd18MQriHtEKbU3QA-54" value="" style="sketch=0;pointerEvents=1;shadow=1;dashed=0;html=1;strokeColor=default;labelPosition=center;verticalLabelPosition=bottom;verticalAlign=top;outlineConnect=0;align=center;shape=mxgraph.office.security.key_permissions;fillColor=#7FBA42;container=1;opacity=50;fontStyle=1" parent="1" vertex="1">
                    <mxGeometry x="650" y="524" width="25" height="53" as="geometry">
                        <mxRectangle x="300" y="330" width="90" height="20" as="alternateBounds"/>
                    </mxGeometry>
                </mxCell>
                <mxCell id="EZAqd18MQriHtEKbU3QA-5" style="edgeStyle=orthogonalEdgeStyle;rounded=0;orthogonalLoop=1;jettySize=auto;html=1;" parent="1" source="EZAqd18MQriHtEKbU3QA-1" edge="1">
                    <mxGeometry relative="1" as="geometry">
                        <mxPoint x="440" y="760" as="targetPoint"/>
                    </mxGeometry>
                </mxCell>
                <mxCell id="EZAqd18MQriHtEKbU3QA-1" value="Prover" style="ellipse;whiteSpace=wrap;html=1;aspect=fixed;shadow=1;" parent="1" vertex="1">
                    <mxGeometry x="400" y="200" width="80" height="80" as="geometry"/>
                </mxCell>
                <mxCell id="EZAqd18MQriHtEKbU3QA-4" style="edgeStyle=orthogonalEdgeStyle;rounded=0;orthogonalLoop=1;jettySize=auto;html=1;startArrow=none;" parent="1" source="EZAqd18MQriHtEKbU3QA-56" edge="1">
                    <mxGeometry relative="1" as="geometry">
                        <mxPoint x="200" y="760" as="targetPoint"/>
                    </mxGeometry>
                </mxCell>
                <mxCell id="EZAqd18MQriHtEKbU3QA-2" value="Server" style="ellipse;whiteSpace=wrap;html=1;aspect=fixed;shadow=1;" parent="1" vertex="1">
                    <mxGeometry x="160" y="200" width="80" height="80" as="geometry"/>
                </mxCell>
                <mxCell id="EZAqd18MQriHtEKbU3QA-6" style="edgeStyle=orthogonalEdgeStyle;rounded=0;orthogonalLoop=1;jettySize=auto;html=1;" parent="1" source="EZAqd18MQriHtEKbU3QA-3" edge="1">
                    <mxGeometry relative="1" as="geometry">
                        <mxPoint x="680" y="760" as="targetPoint"/>
                    </mxGeometry>
                </mxCell>
                <mxCell id="EZAqd18MQriHtEKbU3QA-3" value="Verifier&lt;br&gt;(Notary)" style="ellipse;whiteSpace=wrap;html=1;aspect=fixed;shadow=1;" parent="1" vertex="1">
                    <mxGeometry x="640" y="200" width="80" height="80" as="geometry"/>
                </mxCell>
                <mxCell id="EZAqd18MQriHtEKbU3QA-29" value="" style="endArrow=classic;html=1;rounded=0;" parent="1" edge="1">
                    <mxGeometry width="50" height="50" relative="1" as="geometry">
                        <mxPoint x="200.25" y="440" as="sourcePoint"/>
                        <mxPoint x="440.75" y="440" as="targetPoint"/>
                    </mxGeometry>
                </mxCell>
                <mxCell id="EZAqd18MQriHtEKbU3QA-30" value="" style="endArrow=classic;html=1;rounded=0;" parent="1" edge="1">
                    <mxGeometry width="50" height="50" relative="1" as="geometry">
                        <mxPoint x="440" y="440" as="sourcePoint"/>
                        <mxPoint x="680" y="440" as="targetPoint"/>
                    </mxGeometry>
                </mxCell>
                <mxCell id="EZAqd18MQriHtEKbU3QA-12" value="Server&lt;br&gt;Public Key" style="sketch=0;pointerEvents=1;shadow=1;dashed=0;html=1;strokeColor=default;labelPosition=center;verticalLabelPosition=bottom;verticalAlign=top;outlineConnect=0;align=center;shape=mxgraph.office.security.key_permissions;fillColor=#7FBA42;container=1;" parent="1" vertex="1">
                    <mxGeometry x="310.25" y="410" width="25" height="53" as="geometry">
                        <mxRectangle x="300" y="330" width="90" height="20" as="alternateBounds"/>
                    </mxGeometry>
                </mxCell>
                <mxCell id="EZAqd18MQriHtEKbU3QA-32" value="Server&lt;br&gt;Public Key" style="sketch=0;pointerEvents=1;shadow=1;dashed=0;html=1;strokeColor=default;labelPosition=center;verticalLabelPosition=bottom;verticalAlign=top;outlineConnect=0;align=center;shape=mxgraph.office.security.key_permissions;fillColor=#7FBA42;container=1;" parent="1" vertex="1">
                    <mxGeometry x="545" y="410" width="25" height="53" as="geometry"/>
                </mxCell>
                <mxCell id="EZAqd18MQriHtEKbU3QA-36" value="" style="endArrow=classic;html=1;rounded=0;" parent="1" edge="1">
                    <mxGeometry width="50" height="50" relative="1" as="geometry">
                        <mxPoint x="679.88" y="329.26" as="sourcePoint"/>
                        <mxPoint x="439.88" y="329.26" as="targetPoint"/>
                    </mxGeometry>
                </mxCell>
                <mxCell id="EZAqd18MQriHtEKbU3QA-26" value="Notary&lt;br&gt;Public Key" style="sketch=0;pointerEvents=1;shadow=1;dashed=0;html=1;strokeColor=default;labelPosition=center;verticalLabelPosition=bottom;verticalAlign=top;outlineConnect=0;align=center;shape=mxgraph.office.security.key_permissions;fillColor=#3333FF;" parent="1" vertex="1">
                    <mxGeometry x="544.88" y="300" width="25" height="53" as="geometry"/>
                </mxCell>
                <mxCell id="EZAqd18MQriHtEKbU3QA-37" value="" style="endArrow=classic;html=1;rounded=0;" parent="1" edge="1">
                    <mxGeometry width="50" height="50" relative="1" as="geometry">
                        <mxPoint x="440.63" y="329.26" as="sourcePoint"/>
                        <mxPoint x="200.13" y="329.26" as="targetPoint"/>
                    </mxGeometry>
                </mxCell>
                <mxCell id="EZAqd18MQriHtEKbU3QA-38" value="Notary&lt;br&gt;Public Key" style="sketch=0;pointerEvents=1;shadow=1;dashed=0;html=1;strokeColor=default;labelPosition=center;verticalLabelPosition=bottom;verticalAlign=top;outlineConnect=0;align=center;shape=mxgraph.office.security.key_permissions;fillColor=#3333FF;" parent="1" vertex="1">
                    <mxGeometry x="259.88" y="300" width="25" height="53" as="geometry"/>
                </mxCell>
                <mxCell id="EZAqd18MQriHtEKbU3QA-39" value="Prover Public &lt;br&gt;Key" style="sketch=0;pointerEvents=1;shadow=1;dashed=0;html=1;strokeColor=default;labelPosition=center;verticalLabelPosition=bottom;verticalAlign=top;outlineConnect=0;align=center;shape=mxgraph.office.security.key_permissions;fillColor=#FF3333;" parent="1" vertex="1">
                    <mxGeometry x="359.88" y="300" width="25" height="53" as="geometry"/>
                </mxCell>
                <mxCell id="EZAqd18MQriHtEKbU3QA-42" value="" style="shape=image;html=1;verticalAlign=top;verticalLabelPosition=bottom;labelBackgroundColor=#ffffff;imageAspect=0;aspect=fixed;image=https://cdn4.iconfinder.com/data/icons/ionicons/512/icon-plus-128.png;shadow=0;sketch=0;strokeColor=#000000;fillColor=none;" parent="1" vertex="1">
                    <mxGeometry x="303.88" y="313" width="33" height="33" as="geometry"/>
                </mxCell>
                <mxCell id="EZAqd18MQriHtEKbU3QA-48" style="edgeStyle=orthogonalEdgeStyle;rounded=0;orthogonalLoop=1;jettySize=auto;html=1;exitX=0.25;exitY=1;exitDx=0;exitDy=0;" parent="1" source="EZAqd18MQriHtEKbU3QA-44" edge="1">
                    <mxGeometry relative="1" as="geometry">
                        <mxPoint x="440" y="650" as="targetPoint"/>
                        <Array as="points">
                            <mxPoint x="537" y="650"/>
                        </Array>
                    </mxGeometry>
                </mxCell>
                <mxCell id="EZAqd18MQriHtEKbU3QA-49" style="edgeStyle=orthogonalEdgeStyle;rounded=0;orthogonalLoop=1;jettySize=auto;html=1;exitX=0.75;exitY=1;exitDx=0;exitDy=0;" parent="1" source="EZAqd18MQriHtEKbU3QA-44" edge="1">
                    <mxGeometry relative="1" as="geometry">
                        <mxPoint x="680" y="650" as="targetPoint"/>
                        <Array as="points">
                            <mxPoint x="587" y="650"/>
                        </Array>
                    </mxGeometry>
                </mxCell>
                <mxCell id="EZAqd18MQriHtEKbU3QA-44" value="" style="rounded=0;whiteSpace=wrap;html=1;shadow=1;sketch=0;strokeColor=#000000;fillColor=#99CCFF;" parent="1" vertex="1">
                    <mxGeometry x="512" y="510" width="100" height="110" as="geometry"/>
                </mxCell>
                <mxCell id="EZAqd18MQriHtEKbU3QA-45" value="Secure 2PC" style="text;html=1;strokeColor=none;fillColor=none;align=center;verticalAlign=middle;whiteSpace=wrap;rounded=0;shadow=0;sketch=0;" parent="1" vertex="1">
                    <mxGeometry x="517" y="520" width="90" height="30" as="geometry"/>
                </mxCell>
                <mxCell id="EZAqd18MQriHtEKbU3QA-46" value="" style="endArrow=classic;html=1;rounded=0;entryX=1.01;entryY=0.458;entryDx=0;entryDy=0;entryPerimeter=0;" parent="1" target="EZAqd18MQriHtEKbU3QA-44" edge="1">
                    <mxGeometry width="50" height="50" relative="1" as="geometry">
                        <mxPoint x="680" y="560" as="sourcePoint"/>
                        <mxPoint x="450" y="550" as="targetPoint"/>
                    </mxGeometry>
                </mxCell>
                <mxCell id="EZAqd18MQriHtEKbU3QA-47" value="" style="endArrow=classic;html=1;rounded=0;entryX=-0.007;entryY=0.458;entryDx=0;entryDy=0;entryPerimeter=0;" parent="1" target="EZAqd18MQriHtEKbU3QA-44" edge="1">
                    <mxGeometry width="50" height="50" relative="1" as="geometry">
                        <mxPoint x="440" y="560" as="sourcePoint"/>
                        <mxPoint x="347" y="580.3799999999999" as="targetPoint"/>
                    </mxGeometry>
                </mxCell>
                <mxCell id="EZAqd18MQriHtEKbU3QA-50" value="PMS Key Share" style="sketch=0;pointerEvents=1;shadow=1;dashed=0;html=1;strokeColor=default;labelPosition=center;verticalLabelPosition=bottom;verticalAlign=top;outlineConnect=0;align=center;shape=mxgraph.office.security.key_permissions;fillColor=#FFFF00;" parent="1" vertex="1">
                    <mxGeometry x="476" y="660" width="25" height="53" as="geometry"/>
                </mxCell>
                <mxCell id="EZAqd18MQriHtEKbU3QA-51" value="PMS Key Share" style="sketch=0;pointerEvents=1;shadow=1;dashed=0;html=1;strokeColor=default;labelPosition=center;verticalLabelPosition=bottom;verticalAlign=top;outlineConnect=0;align=center;shape=mxgraph.office.security.key_permissions;fillColor=#FFFF00;" parent="1" vertex="1">
                    <mxGeometry x="615" y="660" width="25" height="53" as="geometry"/>
                </mxCell>
                <mxCell id="EZAqd18MQriHtEKbU3QA-53" value="Requester&lt;br&gt;Private Key" style="sketch=0;pointerEvents=1;shadow=1;dashed=0;html=1;strokeColor=default;labelPosition=center;verticalLabelPosition=bottom;verticalAlign=top;outlineConnect=0;align=center;shape=mxgraph.office.security.key_permissions;fillColor=#FF3333;opacity=50;" parent="1" vertex="1">
                    <mxGeometry x="462.5" y="529.5" width="25" height="53" as="geometry"/>
                </mxCell>
                <mxCell id="EZAqd18MQriHtEKbU3QA-52" value="Notary&lt;br&gt;Private Key" style="sketch=0;pointerEvents=1;shadow=1;dashed=0;html=1;strokeColor=default;labelPosition=center;verticalLabelPosition=bottom;verticalAlign=top;outlineConnect=0;align=center;shape=mxgraph.office.security.key_permissions;fillColor=#3333FF;opacity=50;" parent="1" vertex="1">
                    <mxGeometry x="634" y="529.5" width="25" height="53" as="geometry"/>
                </mxCell>
                <mxCell id="EZAqd18MQriHtEKbU3QA-55" value="" style="sketch=0;pointerEvents=1;shadow=1;dashed=0;html=1;strokeColor=default;labelPosition=center;verticalLabelPosition=bottom;verticalAlign=top;outlineConnect=0;align=center;shape=mxgraph.office.security.key_permissions;fillColor=#7FBA42;container=1;opacity=50;" parent="1" vertex="1">
                    <mxGeometry x="476" y="524" width="25" height="53" as="geometry">
                        <mxRectangle x="300" y="330" width="90" height="20" as="alternateBounds"/>
                    </mxGeometry>
                </mxCell>
                <mxCell id="EZAqd18MQriHtEKbU3QA-56" value="PMS Key" style="sketch=0;pointerEvents=1;shadow=1;dashed=0;html=1;strokeColor=default;labelPosition=center;verticalLabelPosition=bottom;verticalAlign=top;outlineConnect=0;align=center;shape=mxgraph.office.security.key_permissions;fillColor=#FFFF00;" parent="1" vertex="1">
                    <mxGeometry x="187.5" y="660" width="25" height="53" as="geometry"/>
                </mxCell>
                <mxCell id="EZAqd18MQriHtEKbU3QA-57" value="" style="edgeStyle=orthogonalEdgeStyle;rounded=0;orthogonalLoop=1;jettySize=auto;html=1;endArrow=none;" parent="1" source="EZAqd18MQriHtEKbU3QA-2" target="EZAqd18MQriHtEKbU3QA-56" edge="1">
                    <mxGeometry relative="1" as="geometry">
                        <mxPoint x="200" y="760" as="targetPoint"/>
                        <mxPoint x="200" y="280" as="sourcePoint"/>
                    </mxGeometry>
                </mxCell>
            </root>
        </mxGraphModel>
    </diagram>
</mxfile>